<svg width="184" height="75" viewBox="0 0 184 75" fill="none" xmlns="http://www.w3.org/2000/svg">
<path d="M10.6015 22.4561H16.114L26.391 53.1461H20.7997L18.2009 45.4952H8.43585L5.87646 53.1461H0.285156L10.6015 22.4561ZM17.2166 41.3023L13.3578 28.6373L9.34149 41.3023H17.2166Z" fill="white"/>
<path d="M32.3711 22.4561L39.3012 33.7811L46.1919 22.4561H52.0982L42.4119 38.0172L51.7832 53.1461H45.8769L39.3012 42.2533L32.6861 53.1461H26.7405L36.1118 38.0172L26.4255 22.4561H32.3711Z" fill="white"/>
<path d="M54.9131 53.1461V22.4561H60.3469V53.1461H54.9131Z" fill="#EC7979"/>
<path d="M87.088 27.6863H78.1498V53.1461H72.7553V27.6863H63.8171V22.4561H87.088V27.6863Z" fill="#EC7979"/>
</svg>
